<?xml version="1.0" encoding="utf-8"?>
<!-- Generator: Adobe Illustrator 25.0.1, SVG Export Plug-In . SVG Version: 6.00 Build 0)  -->
<svg version="1.1" id="圖層_1" xmlns="http://www.w3.org/2000/svg" xmlns:xlink="http://www.w3.org/1999/xlink" x="0px" y="0px"
	 viewBox="0 0 18 18" style="enable-background:new 0 0 18 18;" xml:space="preserve">
<style type="text/css">
	.st0{fill:none;stroke:#FF0000;stroke-width:3;stroke-miterlimit:10;}
	.st1{fill:#FF0000;}
	.st2{fill:none;stroke:#0000FF;stroke-width:3;stroke-miterlimit:10;}
	.st3{clip-path:url(#SVGID_2_);}
	.st4{fill:#FFFFFF;}
</style>
<g id="mOgrYW.tif_1_">
	<g>
		<path class="st4" d="M1.88,12.43c0.23-0.07,0.44-0.14,0.65-0.21c0.42-0.15,0.86-0.28,1.27-0.46c0.37-0.17,0.72-0.38,1.06-0.61
			C5.58,10.68,6.28,10.19,7,9.71c0.21-0.14,0.43-0.27,0.64-0.4c0.04-0.02,0.09-0.04,0.13-0.05C7.89,9.22,8,9.23,8.12,9.29
			c1.03,0.53,2.06,1.06,3.09,1.59c0.91,0.47,1.82,0.95,2.73,1.42c0.02,0.01,0.04,0.02,0.07,0.04c-0.08,0.21-0.16,0.42-0.24,0.63
			c-0.54,1.39-1.2,2.73-1.98,4c-0.16,0.26-0.33,0.52-0.5,0.78c-0.14,0.21-0.41,0.31-0.64,0.23c-0.47-0.17-0.94-0.35-1.4-0.53
			c-0.01,0-0.02-0.01-0.04-0.02c0.08-0.11,0.16-0.22,0.24-0.33c0.29-0.41,0.58-0.82,0.87-1.24c0.06-0.09,0.12-0.19,0.15-0.3
			c0.11-0.3,0.01-0.57-0.26-0.74c-0.37-0.24-0.72-0.18-1.01,0.19c-0.27,0.34-0.52,0.7-0.78,1.05c-0.17,0.23-0.35,0.46-0.52,0.69
			c-0.03,0.04-0.05,0.05-0.1,0.02c-0.77-0.47-1.53-0.94-2.3-1.41c0,0,0,0-0.01-0.01c0.06-0.05,0.11-0.1,0.17-0.13
			c0.31-0.17,0.42-0.46,0.45-0.78c0.01-0.07,0.01-0.13,0.01-0.2c0-0.21-0.08-0.32-0.28-0.39c-0.38-0.12-0.74-0.09-1.06,0.17
			c-0.09,0.07-0.18,0.13-0.28,0.2c-0.15,0.11-0.31,0.12-0.48,0.04c-0.23-0.1-0.41-0.26-0.6-0.42c-0.49-0.44-0.99-0.87-1.48-1.31
			C1.93,12.49,1.91,12.47,1.88,12.43z"/>
		<path class="st4" d="M14.45,10.96c-1.88-0.95-3.74-1.94-5.62-2.91c0.08-0.11,0.15-0.21,0.23-0.31c0.32-0.41,0.68-0.76,1.14-1.01
			c0.47-0.26,0.98-0.35,1.52-0.29c0.61,0.07,1.16,0.3,1.69,0.59c0.32,0.18,0.63,0.36,0.89,0.63c0.46,0.48,0.68,1.05,0.65,1.71
			c-0.02,0.56-0.2,1.07-0.47,1.56C14.48,10.92,14.47,10.93,14.45,10.96z"/>
		<path class="st4" d="M14.76,6.14c-0.56-0.29-1.11-0.58-1.66-0.87c0.05-0.11,0.11-0.21,0.16-0.31c0.68-1.3,1.36-2.59,2.05-3.89
			c0.11-0.2,0.21-0.4,0.33-0.6c0.17-0.3,0.41-0.48,0.77-0.47c0.26,0.01,0.49,0.12,0.68,0.29c0.32,0.28,0.39,0.66,0.19,1.06
			c-0.28,0.56-0.58,1.12-0.87,1.68c-0.38,0.73-0.76,1.46-1.15,2.19c-0.15,0.28-0.29,0.56-0.44,0.84
			C14.79,6.08,14.78,6.11,14.76,6.14z"/>
	</g>
</g>
<path class="st4" d="M5.24,8.92L5.24,8.92c0-0.55-0.45-1-1-1v0c0.55,0,1-0.45,1-1h0c0,0.55,0.45,1,1,1v0
	C5.69,7.91,5.24,8.36,5.24,8.92z"/>
<path class="st4" d="M2.07,11.24L2.07,11.24c0-0.8-0.65-1.45-1.45-1.45v0c0.8,0,1.45-0.65,1.45-1.45h0c0,0.8,0.65,1.45,1.45,1.45v0
	C2.71,9.79,2.07,10.44,2.07,11.24z"/>
</svg>
