<svg id="圖層_1" data-name="圖層 1" xmlns="http://www.w3.org/2000/svg" viewBox="0 0 100 100"><defs><style>.cls-1{fill:#fff;}.cls-2,.cls-5,.cls-6{isolation:isolate;}.cls-3{fill:#fddb5b;}.cls-4{fill:#515151;}.cls-6{fill:#ea5857;}</style></defs><path class="cls-1" d="M96.55,53.33A46.67,46.67,0,0,1,17,83,46.38,46.38,0,0,1,3.45,53.33h93.1"/><path d="M96.55,53.33A46.67,46.67,0,0,1,17,83,46.38,46.38,0,0,1,3.45,53.33h93.1M100,50H0a50,50,0,0,0,100,0Z"/><g class="cls-2"><path class="cls-3" d="M50,0A50,50,0,0,0,0,50H100A50,50,0,0,0,50,0Z"/></g><g class="cls-2"><path class="cls-4" d="M50,0A49.94,49.94,0,0,0,8.48,22.14h83A49.94,49.94,0,0,0,50,0Z"/></g><path class="cls-5" d="M50,3.33A46.67,46.67,0,0,1,96.55,46.67H3.45A46.67,46.67,0,0,1,50,3.33M50,0A50,50,0,0,0,0,50H100A50,50,0,0,0,50,0Z"/><circle class="cls-1" cx="50" cy="50" r="16.94"/><path d="M50,70.27A20.27,20.27,0,1,1,70.27,50,20.29,20.29,0,0,1,50,70.27Zm0-33.88A13.61,13.61,0,1,0,63.61,50,13.63,13.63,0,0,0,50,36.39Z"/><circle class="cls-1" cx="50" cy="50" r="9.41"/><path d="M50,60.25A10.25,10.25,0,1,1,60.25,50,10.26,10.26,0,0,1,50,60.25Zm0-18.83A8.58,8.58,0,1,0,58.58,50,8.59,8.59,0,0,0,50,41.42Z"/><polygon class="cls-6" points="50 28.32 35.28 10.99 41.37 5.81 50 15.96 58.63 5.81 64.72 10.99 50 28.32"/></svg>